<?xml version="1.0" encoding="UTF-8"?>
<svg id="Layer_1" xmlns="http://www.w3.org/2000/svg" version="1.1" xmlns:xlink="http://www.w3.org/1999/xlink" viewBox="0 0 50 50">
  <!-- Generator: Adobe Illustrator 29.5.1, SVG Export Plug-In . SVG Version: 2.1.0 Build 141)  -->
  <defs>
    <style>
      .st0 {
        stroke: #4b566b;
        stroke-width: 2px;
      }

      .st0, .st1 {
        fill: none;
      }

      .st2 {
        fill: #2b3445;
      }

      .st3 {
        clip-path: url(#clippath);
      }
    </style>
    <clipPath id="clippath">
      <rect class="st1" x="15.1" y="16" width="19.9" height="17.9"/>
    </clipPath>
  </defs>
  <path class="st0" d="M19.5,4.5c3.4-2,7.6-2,11,0l9.5,5.5c3.4,2,5.5,5.6,5.5,9.5v11c0,3.9-2.1,7.6-5.5,9.5l-9.5,5.5c-3.4,2-7.6,2-11,0l-9.5-5.5c-3.4-2-5.5-5.6-5.5-9.5v-11c0-3.9,2.1-7.6,5.5-9.5l9.5-5.5Z"/>
  <g class="st3">
    <path class="st2" d="M32.2,23.9c-.1,0-.3,0-.4,0-.9,0-1.7-.4-2.2-1-.5.6-1.4,1-2.3,1s-1.7-.4-2.3-1c-.5.6-1.3,1-2.3,1s-1.7-.4-2.2-1c-.5.6-1.4,1-2.3,1s-.3,0-.4,0c-1.9-.3-2.8-2.5-1.8-4.2l2-3.2c.2-.3.5-.5.8-.5h12.3c.3,0,.6.2.8.5l2,3.2c1,1.6.1,3.9-1.8,4.2ZM32.3,25c.1,0,.3,0,.4,0v6.8c0,1.2-1,2.2-2.2,2.2h-11.1c-1.2,0-2.2-1-2.2-2.2v-6.8c.1,0,.3,0,.4,0h0c.2,0,.4,0,.6,0,.4,0,.8,0,1.2-.2v4.7h11.1v-4.7c.4.1.8.2,1.2.2s.4,0,.6,0Z"/>
  </g>
</svg>